# xmcd
#
# Track frame offsets: 
#        150
#        594
#        11735
#        23846
#        34936
#        47183
#        57621
#        68350
#        68794
#        79566
#        90857
#        101925
#        114048
#        126756
#        142502
#        153219
#
# Disc length: 2048 seconds
#
# Revision: 0
# Processed by: cddbd v1.5.2PL0 Copyright (c) Steve Scherf et al.
# Submitted via: ExactAudioCopy v0.99pb4
#
DISCID=b907fe10
DTITLE=Sheps, The - Give Your Heart For Christmas
DYEAR=2000
DGENRE=Christmas/Holiday
TTITLE0=Interlude
TTITLE1=Christmas Puts Jingle Bells In My Heart
TTITLE2=It's Christmas All Over Again
TTITLE3=Santa Claus, Santa Claus
TTITLE4=My New Year's Prayer (Acapella)
TTITLE5=Your Santa Claus
TTITLE6=Give Your Heart For Christmas
TTITLE7=Interlude
TTITLE8=She Took The Merry Out Of My Christmas (Acapella)
TTITLE9=It's A Lovely Christmas Night
TTITLE10=Christmas Puts Jingle Bells In My Heart (Acapella Outtake)
TTITLE11=Christmas Bells
TTITLE12=Christmas Is Over (Acapella)
TTITLE13=We'll Spend Christmas Apart
TTITLE14=It's A New Year (Acapella)
TTITLE15=Interlude
EXTD=
EXTT0=
EXTT1=
EXTT2=
EXTT3=
EXTT4=
EXTT5=
EXTT6=
EXTT7=
EXTT8=
EXTT9=
EXTT10=
EXTT11=
EXTT12=
EXTT13=
EXTT14=
EXTT15=
PLAYORDER=
